ffmpeg started on 2025-05-13 at 10:51:23
Report written to "D:\Convert\FFMetrics\reports\psnr_report-6.txt"
Log level: 32
Command line:
ffmpeg -hide_banner -nostdin -i "G:\\\xc0\xed\xe8\xec\xe5\\\xce\xed\xe3\xee\xe8\xed\xe3\xe8\\!_35_\xcb\xe5\xf2\xee_2024\\DreamCast-1\\\xdf \xf1\xf2\xe0\xeb \xf1\xe0\xec\xfb\xec \xf1\xe8\xeb\xfc\xed\xfb\xec \xf1 \xef\xf0\xee\xe2\xe0\xeb\xfc\xed\xfb\xec \xed\xe0\xe2\xfb\xea\xee\xec \xab\xed\xe5\xed\xee\xf0\xec\xe0\xeb\xfc\xed\xee\xe5 \xf1\xee\xf1\xf2\xee\xff\xed\xe8\xe5\xbb, \xff \xf0\xe0\xe7\xf0\xf3\xf8\xf3 \xe2\xf1\xb8\\[DC] Hazurewaku - 08_Telegram_HEVC.mkv" -i "G:\\\xc0\xed\xe8\xec\xe5\\\xce\xed\xe3\xee\xe8\xed\xe3\xe8\\!_35_\xcb\xe5\xf2\xee_2024\\DreamCast-1\\\xdf \xf1\xf2\xe0\xeb \xf1\xe0\xec\xfb\xec \xf1\xe8\xeb\xfc\xed\xfb\xec \xf1 \xef\xf0\xee\xe2\xe0\xeb\xfc\xed\xfb\xec \xed\xe0\xe2\xfb\xea\xee\xec \xab\xed\xe5\xed\xee\xf0\xec\xe0\xeb\xfc\xed\xee\xe5 \xf1\xee\xf1\xf2\xee\xff\xed\xe8\xe5\xbb, \xff \xf0\xe0\xe7\xf0\xf3\xf8\xf3 \xe2\xf1\xb8\\[DC] Hazurewaku - 08_Telegram.mp4" -lavfi "[0:v]settb=AVTB,setpts=PTS-STARTPTS,format=pix_fmts=yuv420p10,fps=24000/1001,scale=1920:1080:flags=bicubic[main];[1:v]settb=AVTB,setpts=PTS-STARTPTS,format=pix_fmts=yuv420p,fps=24000/1001,scale=1920:1080:flags=bicubic[ref];[main][ref]psnr=eof_action=endall:stats_file='D\\:/Convert/FFMetrics/logs/psnr_logfile-6.txt'" -f null -
Input #0, matroska,webm, from 'G:\Аниме\Онгоинги\!_35_Лето_2024\DreamCast-1\Я стал самым сильным с провальным навыком «ненормальное состояние», я разрушу всё\[DC] Hazurewaku - 08_Telegram_HEVC.mkv':
  Metadata:
    COMPATIBLE_BRANDS: isomiso2avc1mp41
    MAJOR_BRAND     : isom
    MINOR_VERSION   : 512
    ENCODER         : Lavf61.7.100
  Duration: 00:24:17.75, start: -0.021000, bitrate: 1060 kb/s
  Stream #0:0: Video: hevc (Main 10), yuv420p10le(tv, bt709, progressive), 1920x1080 [SAR 1:1 DAR 16:9], 23.98 fps, 23.98 tbr, 1k tbn (default)
      Metadata:
        HANDLER_NAME    : VideoHandler
        VENDOR_ID       : [0][0][0][0]
        ENCODER         : Lavc61.19.100 libx265
        BPS             : 864390
        DURATION        : 00:24:16.579708333
        NUMBER_OF_FRAMES: 34923
        NUMBER_OF_BYTES : 157381692
        _STATISTICS_WRITING_APP: mkvpropedit v66.0.0 ('Josie') 64-bit
        _STATISTICS_WRITING_DATE_UTC: 2025-05-11 15:45:12
        _STATISTICS_TAGS: BPS DURATION NUMBER_OF_FRAMES NUMBER_OF_BYTES
  Stream #0:1: Audio: aac (LC), 48000 Hz, stereo, fltp (default)
      Metadata:
        HANDLER_NAME    : SoundHandler
        VENDOR_ID       : [0][0][0][0]
        ENCODER         : Lavc61.19.100 aac
        BPS             : 193157
        DURATION        : 00:24:17.749000000
        NUMBER_OF_FRAMES: 68333
        NUMBER_OF_BYTES : 35196903
        _STATISTICS_WRITING_APP: mkvpropedit v66.0.0 ('Josie') 64-bit
        _STATISTICS_WRITING_DATE_UTC: 2025-05-11 15:45:12
        _STATISTICS_TAGS: BPS DURATION NUMBER_OF_FRAMES NUMBER_OF_BYTES
Input #1, mov,mp4,m4a,3gp,3g2,mj2, from 'G:\Аниме\Онгоинги\!_35_Лето_2024\DreamCast-1\Я стал самым сильным с провальным навыком «ненормальное состояние», я разрушу всё\[DC] Hazurewaku - 08_Telegram.mp4':
  Metadata:
    major_brand     : isom
    minor_version   : 512
    compatible_brands: isomiso2avc1mp41
    encoder         : Lavf61.1.100
  Duration: 00:24:17.70, start: 0.000000, bitrate: 3461 kb/s
  Stream #1:0[0x1](und): Video: h264 (High) (avc1 / 0x31637661), yuv420p(tv, bt709, progressive), 1920x1080 [SAR 1:1 DAR 16:9], 3316 kb/s, 23.98 fps, 23.98 tbr, 24k tbn (default)
      Metadata:
        handler_name    : VideoHandler
        vendor_id       : [0][0][0][0]
        encoder         : Lavc61.3.100 h264_qsv
  Stream #1:1[0x2](und): Audio: aac (HE-AACv2) (mp4a / 0x6134706D), 48000 Hz, stereo, fltp, 144 kb/s (default)
      Metadata:
        handler_name    : SoundHandler
        vendor_id       : [0][0][0][0]
Stream mapping:
  Stream #0:0 (hevc) -> settb:default
  Stream #1:0 (h264) -> settb:default
  psnr:default -> Stream #0:0 (wrapped_avframe)
  Stream #0:1 -> #0:1 (aac (native) -> pcm_s16le (native))
Output #0, null, to 'pipe:':
  Metadata:
    COMPATIBLE_BRANDS: isomiso2avc1mp41
    MAJOR_BRAND     : isom
    MINOR_VERSION   : 512
    encoder         : Lavf61.7.100
  Stream #0:0: Video: wrapped_avframe, yuv420p10le(tv, bt709, progressive), 1920x1080 [SAR 1:1 DAR 16:9], q=2-31, 200 kb/s, 23.98 fps, 23.98 tbn
      Metadata:
        encoder         : Lavc61.19.100 wrapped_avframe
  Stream #0:1: Audio: pcm_s16le, 48000 Hz, stereo, s16, 1536 kb/s (default)
      Metadata:
        HANDLER_NAME    : SoundHandler
        VENDOR_ID       : [0][0][0][0]
        _STATISTICS_TAGS: BPS DURATION NUMBER_OF_FRAMES NUMBER_OF_BYTES
        BPS             : 193157
        DURATION        : 00:24:17.749000000
        NUMBER_OF_FRAMES: 68333
        NUMBER_OF_BYTES : 35196903
        _STATISTICS_WRITING_APP: mkvpropedit v66.0.0 ('Josie') 64-bit
        _STATISTICS_WRITING_DATE_UTC: 2025-05-11 15:45:12
        encoder         : Lavc61.19.100 pcm_s16le
frame=  173 fps=0.0 q=-0.0 size=N/A time=00:00:07.21 bitrate=N/A speed=  14x    frame=  420 fps=404 q=-0.0 size=N/A time=00:00:17.51 bitrate=N/A speed=16.9x    frame=  665 fps=430 q=-0.0 size=N/A time=00:00:27.73 bitrate=N/A speed=17.9x    frame=  923 fps=446 q=-0.0 size=N/A time=00:00:38.49 bitrate=N/A speed=18.6x    frame= 1109 fps=429 q=-0.0 size=N/A time=00:00:46.25 bitrate=N/A speed=17.9x    frame= 1264 fps=407 q=-0.0 size=N/A time=00:00:52.71 bitrate=N/A speed=  17x    frame= 1478 fps=410 q=-0.0 size=N/A time=00:01:01.64 bitrate=N/A speed=17.1x    frame= 1681 fps=407 q=-0.0 size=N/A time=00:01:10.11 bitrate=N/A speed=  17x    frame= 1882 fps=404 q=-0.0 size=N/A time=00:01:18.49 bitrate=N/A speed=16.9x    frame= 2055 fps=397 q=-0.0 size=N/A time=00:01:25.71 bitrate=N/A speed=16.6x    frame= 2230 fps=391 q=-0.0 size=N/A time=00:01:33.00 bitrate=N/A speed=16.3x    frame= 2395 fps=385 q=-0.0 size=N/A time=00:01:39.89 bitrate=N/A speed=  16x    frame= 2590 fps=384 q=-0.0 size=N/A time=00:01:48.02 bitrate=N/A speed=  16x    frame= 2782 fps=383 q=-0.0 size=N/A time=00:01:56.03 bitrate=N/A speed=  16x    frame= 2976 fps=383 q=-0.0 size=N/A time=00:02:04.12 bitrate=N/A speed=  16x    frame= 3172 fps=383 q=-0.0 size=N/A time=00:02:12.29 bitrate=N/A speed=  16x    frame= 3407 fps=387 q=-0.0 size=N/A time=00:02:22.10 bitrate=N/A speed=16.1x    frame= 3677 fps=395 q=-0.0 size=N/A time=00:02:33.36 bitrate=N/A speed=16.5x    frame= 3944 fps=401 q=-0.0 size=N/A time=00:02:44.49 bitrate=N/A speed=16.7x    frame= 4207 fps=406 q=-0.0 size=N/A time=00:02:55.46 bitrate=N/A speed=16.9x    frame= 4472 fps=412 q=-0.0 size=N/A time=00:03:06.51 bitrate=N/A speed=17.2x    frame= 4750 fps=417 q=-0.0 size=N/A time=00:03:18.11 bitrate=N/A speed=17.4x    frame= 5008 fps=421 q=-0.0 size=N/A time=00:03:28.87 bitrate=N/A speed=17.6x    frame= 5237 fps=422 q=-0.0 size=N/A time=00:03:38.42 bitrate=N/A speed=17.6x    frame= 5491 fps=425 q=-0.0 size=N/A time=00:03:49.02 bitrate=N/A speed=17.7x    frame= 5764 fps=429 q=-0.0 size=N/A time=00:04:00.40 bitrate=N/A speed=17.9x    frame= 6029 fps=432 q=-0.0 size=N/A time=00:04:11.45 bitrate=N/A speed=  18x    frame= 6289 fps=435 q=-0.0 size=N/A time=00:04:22.34 bitrate=N/A speed=18.1x    frame= 6582 fps=439 q=-0.0 size=N/A time=00:04:34.52 bitrate=N/A speed=18.3x    frame= 6843 fps=441 q=-0.0 size=N/A time=00:04:45.41 bitrate=N/A speed=18.4x    frame= 7099 fps=443 q=-0.0 size=N/A time=00:04:56.08 bitrate=N/A speed=18.5x    frame= 7344 fps=444 q=-0.0 size=N/A time=00:05:06.30 bitrate=N/A speed=18.5x    frame= 7613 fps=446 q=-0.0 size=N/A time=00:05:17.52 bitrate=N/A speed=18.6x    frame= 7883 fps=449 q=-0.0 size=N/A time=00:05:28.78 bitrate=N/A speed=18.7x    frame= 8139 fps=450 q=-0.0 size=N/A time=00:05:39.46 bitrate=N/A speed=18.8x    frame= 8408 fps=452 q=-0.0 size=N/A time=00:05:50.68 bitrate=N/A speed=18.9x    frame= 8695 fps=455 q=-0.0 size=N/A time=00:06:02.65 bitrate=N/A speed=  19x    frame= 8970 fps=457 q=-0.0 size=N/A time=00:06:14.12 bitrate=N/A speed=19.1x    frame= 9248 fps=459 q=-0.0 size=N/A time=00:06:25.71 bitrate=N/A speed=19.1x    frame= 9523 fps=461 q=-0.0 size=N/A time=00:06:37.18 bitrate=N/A speed=19.2x    frame= 9781 fps=462 q=-0.0 size=N/A time=00:06:47.94 bitrate=N/A speed=19.3x    frame=10043 fps=463 q=-0.0 size=N/A time=00:06:58.87 bitrate=N/A speed=19.3x    frame=10270 fps=463 q=-0.0 size=N/A time=00:07:08.34 bitrate=N/A speed=19.3x    frame=10507 fps=462 q=-0.0 size=N/A time=00:07:18.22 bitrate=N/A speed=19.3x    frame=10751 fps=463 q=-0.0 size=N/A time=00:07:28.40 bitrate=N/A speed=19.3x    frame=11024 fps=464 q=-0.0 size=N/A time=00:07:39.79 bitrate=N/A speed=19.4x    frame=11279 fps=465 q=-0.0 size=N/A time=00:07:50.42 bitrate=N/A speed=19.4x    frame=11548 fps=466 q=-0.0 size=N/A time=00:08:01.64 bitrate=N/A speed=19.4x    frame=11787 fps=466 q=-0.0 size=N/A time=00:08:11.61 bitrate=N/A speed=19.4x    frame=12049 fps=467 q=-0.0 size=N/A time=00:08:22.54 bitrate=N/A speed=19.5x    frame=12312 fps=468 q=-0.0 size=N/A time=00:08:33.51 bitrate=N/A speed=19.5x    frame=12576 fps=468 q=-0.0 size=N/A time=00:08:44.52 bitrate=N/A speed=19.5x    frame=12838 fps=469 q=-0.0 size=N/A time=00:08:55.45 bitrate=N/A speed=19.6x    frame=13082 fps=469 q=-0.0 size=N/A time=00:09:05.62 bitrate=N/A speed=19.6x    frame=13339 fps=470 q=-0.0 size=N/A time=00:09:16.34 bitrate=N/A speed=19.6x    frame=13591 fps=470 q=-0.0 size=N/A time=00:09:26.85 bitrate=N/A speed=19.6x    frame=13839 fps=470 q=-0.0 size=N/A time=00:09:37.20 bitrate=N/A speed=19.6x    frame=14087 fps=470 q=-0.0 size=N/A time=00:09:47.54 bitrate=N/A speed=19.6x    frame=14340 fps=471 q=-0.0 size=N/A time=00:09:58.09 bitrate=N/A speed=19.6x    frame=14616 fps=472 q=-0.0 size=N/A time=00:10:09.60 bitrate=N/A speed=19.7x    frame=14867 fps=472 q=-0.0 size=N/A time=00:10:20.07 bitrate=N/A speed=19.7x    frame=15141 fps=473 q=-0.0 size=N/A time=00:10:31.50 bitrate=N/A speed=19.7x    frame=15387 fps=473 q=-0.0 size=N/A time=00:10:41.76 bitrate=N/A speed=19.7x    frame=15650 fps=474 q=-0.0 size=N/A time=00:10:52.73 bitrate=N/A speed=19.8x    frame=15895 fps=474 q=-0.0 size=N/A time=00:11:02.95 bitrate=N/A speed=19.8x    frame=16142 fps=474 q=-0.0 size=N/A time=00:11:13.25 bitrate=N/A speed=19.8x    frame=16400 fps=474 q=-0.0 size=N/A time=00:11:24.01 bitrate=N/A speed=19.8x    frame=16658 fps=475 q=-0.0 size=N/A time=00:11:34.77 bitrate=N/A speed=19.8x    frame=16920 fps=475 q=-0.0 size=N/A time=00:11:45.70 bitrate=N/A speed=19.8x    frame=17183 fps=476 q=-0.0 size=N/A time=00:11:56.67 bitrate=N/A speed=19.8x    frame=17444 fps=476 q=-0.0 size=N/A time=00:12:07.56 bitrate=N/A speed=19.9x    frame=17689 fps=476 q=-0.0 size=N/A time=00:12:17.77 bitrate=N/A speed=19.9x    frame=17898 fps=475 q=-0.0 size=N/A time=00:12:26.49 bitrate=N/A speed=19.8x    frame=18133 fps=475 q=-0.0 size=N/A time=00:12:36.29 bitrate=N/A speed=19.8x    frame=18353 fps=474 q=-0.0 size=N/A time=00:12:45.47 bitrate=N/A speed=19.8x    frame=18592 fps=474 q=-0.0 size=N/A time=00:12:55.44 bitrate=N/A speed=19.8x    frame=18826 fps=474 q=-0.0 size=N/A time=00:13:05.20 bitrate=N/A speed=19.8x    frame=19060 fps=474 q=-0.0 size=N/A time=00:13:14.96 bitrate=N/A speed=19.7x    frame=19319 fps=474 q=-0.0 size=N/A time=00:13:25.76 bitrate=N/A speed=19.8x    frame=19555 fps=474 q=-0.0 size=N/A time=00:13:35.60 bitrate=N/A speed=19.8x    frame=19779 fps=473 q=-0.0 size=N/A time=00:13:44.94 bitrate=N/A speed=19.7x    frame=20012 fps=473 q=-0.0 size=N/A time=00:13:54.66 bitrate=N/A speed=19.7x    frame=20263 fps=473 q=-0.0 size=N/A time=00:14:05.13 bitrate=N/A speed=19.7x    frame=20512 fps=473 q=-0.0 size=N/A time=00:14:15.52 bitrate=N/A speed=19.7x    frame=20780 fps=474 q=-0.0 size=N/A time=00:14:26.69 bitrate=N/A speed=19.8x    frame=21043 fps=474 q=-0.0 size=N/A time=00:14:37.66 bitrate=N/A speed=19.8x    frame=21320 fps=475 q=-0.0 size=N/A time=00:14:49.22 bitrate=N/A speed=19.8x    frame=21553 fps=475 q=-0.0 size=N/A time=00:14:58.93 bitrate=N/A speed=19.8x    frame=21806 fps=475 q=-0.0 size=N/A time=00:15:09.49 bitrate=N/A speed=19.8x    frame=22029 fps=474 q=-0.0 size=N/A time=00:15:18.79 bitrate=N/A speed=19.8x    frame=22262 fps=474 q=-0.0 size=N/A time=00:15:28.51 bitrate=N/A speed=19.8x    frame=22528 fps=475 q=-0.0 size=N/A time=00:15:39.60 bitrate=N/A speed=19.8x    frame=22797 fps=475 q=-0.0 size=N/A time=00:15:50.82 bitrate=N/A speed=19.8x    frame=23053 fps=475 q=-0.0 size=N/A time=00:16:01.50 bitrate=N/A speed=19.8x    frame=23295 fps=475 q=-0.0 size=N/A time=00:16:11.59 bitrate=N/A speed=19.8x    frame=23540 fps=475 q=-0.0 size=N/A time=00:16:21.81 bitrate=N/A speed=19.8x    frame=23788 fps=475 q=-0.0 size=N/A time=00:16:32.15 bitrate=N/A speed=19.8x    frame=24043 fps=475 q=-0.0 size=N/A time=00:16:42.79 bitrate=N/A speed=19.8x    frame=24286 fps=475 q=-0.0 size=N/A time=00:16:52.92 bitrate=N/A speed=19.8x    frame=24548 fps=476 q=-0.0 size=N/A time=00:17:03.85 bitrate=N/A speed=19.8x    frame=24813 fps=476 q=-0.0 size=N/A time=00:17:14.90 bitrate=N/A speed=19.9x    frame=25077 fps=476 q=-0.0 size=N/A time=00:17:25.91 bitrate=N/A speed=19.9x    frame=25347 fps=477 q=-0.0 size=N/A time=00:17:37.18 bitrate=N/A speed=19.9x    frame=25620 fps=478 q=-0.0 size=N/A time=00:17:48.56 bitrate=N/A speed=19.9x    frame=25886 fps=478 q=-0.0 size=N/A time=00:17:59.66 bitrate=N/A speed=19.9x    frame=26145 fps=478 q=-0.0 size=N/A time=00:18:10.46 bitrate=N/A speed=19.9x    frame=26424 fps=479 q=-0.0 size=N/A time=00:18:22.10 bitrate=N/A speed=  20x    frame=26677 fps=479 q=-0.0 size=N/A time=00:18:32.65 bitrate=N/A speed=  20x    frame=26912 fps=479 q=-0.0 size=N/A time=00:18:42.45 bitrate=N/A speed=  20x    frame=27164 fps=479 q=-0.0 size=N/A time=00:18:52.96 bitrate=N/A speed=  20x    frame=27417 fps=479 q=-0.0 size=N/A time=00:19:03.51 bitrate=N/A speed=  20x    frame=27693 fps=479 q=-0.0 size=N/A time=00:19:15.02 bitrate=N/A speed=  20x    frame=27957 fps=480 q=-0.0 size=N/A time=00:19:26.03 bitrate=N/A speed=  20x    frame=28232 fps=480 q=-0.0 size=N/A time=00:19:37.50 bitrate=N/A speed=  20x    frame=28468 fps=480 q=-0.0 size=N/A time=00:19:47.35 bitrate=N/A speed=  20x    frame=28677 fps=479 q=-0.0 size=N/A time=00:19:56.06 bitrate=N/A speed=  20x    frame=28875 fps=478 q=-0.0 size=N/A time=00:20:04.32 bitrate=N/A speed=  20x    frame=29101 fps=478 q=-0.0 size=N/A time=00:20:13.75 bitrate=N/A speed=19.9x    frame=29327 fps=478 q=-0.0 size=N/A time=00:20:23.18 bitrate=N/A speed=19.9x    frame=29553 fps=477 q=-0.0 size=N/A time=00:20:32.60 bitrate=N/A speed=19.9x    frame=29775 fps=477 q=-0.0 size=N/A time=00:20:41.86 bitrate=N/A speed=19.9x    frame=29999 fps=477 q=-0.0 size=N/A time=00:20:51.20 bitrate=N/A speed=19.9x    frame=30238 fps=476 q=-0.0 size=N/A time=00:21:01.17 bitrate=N/A speed=19.9x    frame=30508 fps=477 q=-0.0 size=N/A time=00:21:12.43 bitrate=N/A speed=19.9x    frame=30768 fps=477 q=-0.0 size=N/A time=00:21:23.28 bitrate=N/A speed=19.9x    frame=31016 fps=477 q=-0.0 size=N/A time=00:21:33.62 bitrate=N/A speed=19.9x    frame=31283 fps=477 q=-0.0 size=N/A time=00:21:44.76 bitrate=N/A speed=19.9x    frame=31559 fps=478 q=-0.0 size=N/A time=00:21:56.27 bitrate=N/A speed=19.9x    frame=31831 fps=478 q=-0.0 size=N/A time=00:22:07.61 bitrate=N/A speed=19.9x    frame=32100 fps=479 q=-0.0 size=N/A time=00:22:18.83 bitrate=N/A speed=  20x    frame=32365 fps=479 q=-0.0 size=N/A time=00:22:29.89 bitrate=N/A speed=  20x    frame=32631 fps=479 q=-0.0 size=N/A time=00:22:40.98 bitrate=N/A speed=  20x    frame=32834 fps=479 q=-0.0 size=N/A time=00:22:49.45 bitrate=N/A speed=  20x    frame=33018 fps=478 q=-0.0 size=N/A time=00:22:57.12 bitrate=N/A speed=19.9x    frame=33228 fps=477 q=-0.0 size=N/A time=00:23:05.88 bitrate=N/A speed=19.9x    frame=33449 fps=477 q=-0.0 size=N/A time=00:23:15.10 bitrate=N/A speed=19.9x    frame=33630 fps=476 q=-0.0 size=N/A time=00:23:22.65 bitrate=N/A speed=19.8x    frame=33799 fps=475 q=-0.0 size=N/A time=00:23:29.69 bitrate=N/A speed=19.8x    frame=33994 fps=474 q=-0.0 size=N/A time=00:23:37.83 bitrate=N/A speed=19.8x    frame=34184 fps=473 q=-0.0 size=N/A time=00:23:45.75 bitrate=N/A speed=19.7x    frame=34350 fps=472 q=-0.0 size=N/A time=00:23:52.68 bitrate=N/A speed=19.7x    frame=34525 fps=471 q=-0.0 size=N/A time=00:23:59.98 bitrate=N/A speed=19.7x    frame=34724 fps=471 q=-0.0 size=N/A time=00:24:08.28 bitrate=N/A speed=19.6x    [Parsed_psnr_10 @ 0000017fada1a840] PSNR y:49.049106 u:51.234333 v:52.022796 average:49.747391 min:40.454705 max:inf
[out#0/null @ 0000017fad9d6140] video:15006KiB audio:273332KiB subtitle:0KiB other streams:0KiB global headers:0KiB muxing overhead: unknown
frame=34923 fps=471 q=-0.0 Lsize=N/A time=00:24:16.58 bitrate=N/A speed=19.6x    
